<?xml version="1.0" standalone="no"?>
<!DOCTYPE svg PUBLIC "-//W3C//DTD SVG 20010904//EN"
 "http://www.w3.org/TR/2001/REC-SVG-20010904/DTD/svg10.dtd">
<svg version="1.0" xmlns="http://www.w3.org/2000/svg"
 width="453.000000pt" height="162.000000pt" viewBox="0 0 453.000000 162.000000"
 preserveAspectRatio="xMidYMid meet">

<g transform="translate(0.000000,162.000000) scale(0.100000,-0.100000)"
fill="#000000" stroke="none">
<path d="M585 1520 c-3 -5 11 -27 30 -49 45 -49 42 -65 -23 -121 -42 -36 -44
-40 -23 -40 31 0 84 33 106 66 9 15 17 42 18 62 1 28 -5 40 -33 63 -35 29 -64
37 -75 19z"/>
<path d="M1125 1288 c-117 -179 -163 -238 -182 -238 -10 0 -35 -5 -55 -11 -45
-12 -53 -43 -13 -53 23 -6 24 -9 14 -28 -7 -12 -31 -47 -55 -77 -36 -46 -44
-63 -44 -98 0 -28 4 -43 13 -43 24 0 36 16 46 58 5 24 16 51 25 61 9 10 16 24
16 32 0 33 40 77 84 94 43 16 57 17 166 5 117 -13 121 -14 126 -39 3 -14 15
-54 25 -89 10 -34 24 -92 30 -127 7 -44 16 -65 25 -65 20 0 18 86 -6 194 -25
112 -25 122 0 129 29 8 24 24 -9 30 -16 3 -32 14 -36 24 -13 31 -36 155 -44
233 -7 69 -26 130 -40 130 -4 0 -42 -55 -86 -122z m81 -133 c8 -49 18 -93 21
-99 5 -8 -166 0 -175 8 -1 2 7 19 18 37 12 19 39 63 61 98 26 40 44 60 50 54
5 -5 16 -49 25 -98z"/>
<path d="M132 1323 c-26 -50 -44 -171 -56 -380 -7 -125 -10 -232 -5 -237 24
-26 262 -13 374 21 52 15 119 52 111 60 -2 2 -62 -3 -133 -12 -70 -9 -162 -15
-203 -13 -69 3 -75 5 -81 28 -16 57 -8 221 17 370 14 84 23 158 20 166 -7 20
-33 17 -44 -3z"/>
<path d="M1812 1279 c-41 -30 -52 -55 -32 -75 6 -6 3 -31 -9 -69 -35 -114 -44
-232 -39 -499 3 -138 3 -280 -1 -316 -6 -60 -9 -66 -41 -88 -47 -32 -55 -48
-36 -77 14 -21 20 -23 48 -15 48 14 93 72 129 167 18 47 39 87 46 90 8 3 92
-31 188 -76 345 -161 491 -208 683 -218 105 -6 116 -4 155 17 86 47 129 109
106 153 -7 12 -17 25 -23 29 -13 8 -36 -9 -36 -28 0 -7 -5 -16 -12 -20 -16
-10 -3 195 18 272 27 98 35 147 25 157 -13 13 -47 -41 -65 -103 -13 -48 -36
-270 -36 -353 l0 -30 -117 6 c-195 9 -345 64 -626 230 l-139 81 29 23 c15 13
83 53 151 90 67 38 141 84 165 104 52 45 89 117 95 184 8 102 -68 229 -176
292 -55 32 -153 63 -201 63 -21 0 -64 9 -96 20 -79 27 -104 25 -153 -11z m257
-148 c134 -23 194 -51 235 -109 67 -95 9 -223 -134 -297 -35 -18 -259 -111
-292 -122 -16 -5 -18 4 -18 83 0 80 25 395 36 452 4 20 9 22 32 18 15 -4 78
-15 141 -25z"/>
<path d="M1586 1234 c-40 -39 -59 -133 -72 -349 -5 -88 -3 -118 9 -148 9 -20
20 -37 25 -37 5 0 12 75 15 168 3 106 11 191 22 232 9 36 18 73 20 83 2 10 7
27 10 37 8 25 -10 34 -29 14z"/>
<path d="M3163 732 c-42 -37 -53 -68 -33 -88 6 -6 4 -39 -6 -94 -23 -123 -16
-259 19 -331 47 -98 66 -109 189 -109 68 0 88 4 123 25 37 21 62 51 52 61 -2
2 -32 -9 -67 -23 -44 -18 -84 -27 -124 -27 -56 -1 -60 1 -92 38 -19 22 -41 62
-49 90 -13 44 -13 51 0 66 22 24 111 40 221 40 101 0 137 9 166 42 22 26 22
32 3 48 -12 10 -20 7 -46 -14 -28 -24 -38 -26 -119 -26 -49 0 -112 -5 -141
-11 -37 -8 -58 -8 -75 0 -22 10 -24 16 -24 88 0 156 34 181 262 193 84 4 161
11 171 15 43 18 5 25 -142 25 -115 0 -170 4 -201 15 -23 8 -43 15 -44 15 0 -1
-20 -18 -43 -38z"/>
<path d="M4333 728 c-19 -24 -34 -142 -33 -244 1 -70 -4 -121 -16 -163 -15
-55 -19 -61 -38 -55 -35 10 -84 52 -232 195 -85 82 -158 144 -183 155 -36 16
-41 22 -41 51 0 44 -36 66 -49 30 -18 -48 -30 -140 -37 -281 -7 -136 -6 -146
16 -194 13 -28 29 -53 37 -56 7 -3 13 -3 13 0 0 3 -5 46 -10 97 -10 84 -1 260
14 274 7 7 98 -41 167 -88 52 -35 216 -170 299 -246 28 -26 40 -28 62 -10 13
9 19 48 28 177 10 153 29 260 51 302 7 13 5 25 -7 43 -18 28 -27 31 -41 13z"/>
<path d="M1435 614 c-43 -22 -75 -55 -75 -76 0 -26 17 -22 57 13 45 39 89 38
86 -3 -3 -47 -33 -96 -119 -192 -46 -52 -84 -101 -84 -110 0 -18 33 -38 52
-31 7 3 60 9 118 14 58 5 118 15 135 22 27 13 19 14 -99 19 l-128 5 52 65
c122 151 142 217 84 274 -20 20 -41 20 -79 0z"/>
</g>
</svg>
