<svg width="222" height="222" viewBox="0 0 222 222" fill="none" xmlns="http://www.w3.org/2000/svg">
<path d="M221.993 166.21V199.63C222.006 202.732 221.369 205.803 220.124 208.646C218.878 211.488 217.052 214.04 214.761 216.138C212.47 218.235 209.766 219.832 206.821 220.826C203.876 221.82 200.756 222.189 197.66 221.91C163.312 218.185 130.319 206.471 101.331 187.71C74.3613 170.606 51.4958 147.786 34.3582 120.87C15.4941 91.808 3.75448 58.7199 0.0905995 24.2862C-0.188336 21.2057 0.1785 18.1009 1.16775 15.1696C2.15699 12.2382 3.74698 9.54458 5.83647 7.26013C7.92596 4.97567 10.4692 3.15046 13.3042 1.90069C16.1392 0.650926 19.2039 0.00399292 22.3032 0.00108005H55.7895C61.2065 -0.0521295 66.4581 1.86233 70.5654 5.38763C74.6727 8.91292 77.3555 13.8085 78.1137 19.1619C79.527 29.857 82.1482 40.3582 85.9271 50.4652C87.4289 54.4525 87.754 58.7858 86.8637 62.9518C85.9735 67.1178 83.9053 70.9417 80.9042 73.9706L66.7283 88.1184C82.6182 116.008 105.756 139.1 133.701 154.958L147.877 140.81C150.912 137.815 154.743 135.751 158.917 134.863C163.092 133.974 167.434 134.299 171.429 135.797C181.556 139.569 192.078 142.185 202.794 143.595C208.216 144.359 213.168 147.085 216.708 151.254C220.248 155.424 222.129 160.746 221.993 166.21Z" fill="#F76643"/>
</svg>
